<svg xmlns="http://www.w3.org/2000/svg" width="676" height="216" viewBox="0 0 676 216"><g fill="none" fill-rule="evenodd"><path fill="#F3BFBE" d="M84.142.09l35.428 1.688c50.074 2.385 89.448 43.678 89.448 93.81 0 49.456-40.093 89.548-89.55 89.548H108.11c-54.594 0-100.656-40.628-107.473-94.795C-4.902 46.333 26.284 6.167 70.293.63A80.313 80.313 0 0 1 84.142.09z" style="mix-blend-mode:multiply"/><path fill="#9FBFD1" d="M341.224 1.329l10.588.82c57.664 4.472 102.175 52.568 102.175 110.405 0 56.6-45.883 102.482-102.482 102.482h-22.102C271.19 215.036 224 167.846 224 109.634c0-1.92.052-3.838.157-5.755C227.438 43.871 278.744-2.116 338.753 1.165c.824.045 1.648.1 2.471.164z" style="mix-blend-mode:multiply"/><path fill="#AFDFCA" d="M573.378 3h3.056c50.601 0 93.057 38.159 98.436 88.473l.678 6.344c4.611 43.13-26.614 81.832-69.744 86.443a78.539 78.539 0 0 1-15.121.153l-33.774-2.923c-46.91-4.06-81.646-45.379-77.586-92.288.019-.22.039-.441.06-.661C483.96 40.05 524.672 3 573.377 3z" style="mix-blend-mode:multiply"/><text fill="#4A4A4A" font-family="PTSans-Regular, PT Sans" font-size="18" letter-spacing=".754"><tspan x="512.018" y="79">Know they can’t </tspan> <tspan x="513.324" y="107">pay off so don’t </tspan> <tspan x="548.899" y="135">plan to</tspan></text><text fill="#4A4A4A" font-family="PTSans-Regular, PT Sans" font-size="18" letter-spacing=".754"><tspan x="32.355" y="82">Know they’ll pay </tspan> <tspan x="68.022" y="110">off debt </tspan></text><text fill="#4A4A4A" font-family="PTSans-Regular, PT Sans" font-size="18" letter-spacing=".754"><tspan x="274.179" y="69">Not sure if they </tspan> <tspan x="265.315" y="97">can pay off or not</tspan></text><text fill="#4A4A4A" font-family="PTSans-Regular, PT Sans" font-size="18" letter-spacing=".754"><tspan x="272.72" y="125">Probably have a </tspan> <tspan x="273.285" y="153">monthly budget</tspan></text></g></svg>