<svg xmlns="http://www.w3.org/2000/svg" width="47" height="75" viewBox="0 0 47 75">
    <path fill="#B34332" fill-rule="evenodd" d="M37.477 74.953l9.369-9.369-9.37-9.369-9.369 9.37 9.37 9.368zm-9.37-9.369l9.37-9.369-9.37-9.37-9.369 9.37 9.37 9.37zm-9.369-9.369l9.37-9.37-9.37-9.368-9.369 9.369 9.37 9.369zm-9.369-9.37l9.37-9.368-9.37-9.37L0 37.477l9.37 9.369zm28.108 9.37l9.369-9.37-9.37-9.368-9.369 9.369 9.37 9.369zm-9.37-9.37l9.37-9.368-9.37-9.37-9.369 9.37 9.37 9.369zm-9.369-9.368l9.37-9.37-9.37-9.369-9.369 9.37 9.37 9.369zm18.739 0l9.369-9.37-9.37-9.369-9.369 9.37 9.37 9.369zm-9.37-9.37l9.37-9.369-9.37-9.369-9.369 9.37 9.37 9.368zm9.37-9.369l9.369-9.369L37.476 0l-9.369 9.37 9.37 9.368z"/>
</svg>
